<svg width="30" height="30" viewBox="0 0 30 30" fill="none" xmlns="http://www.w3.org/2000/svg">
<g clip-path="url(#clip0_4549_52)">
<path d="M15 30C17.9667 30 20.8668 29.1203 23.3336 27.472C25.8003 25.8238 27.7229 23.4812 28.8582 20.7403C29.9935 17.9994 30.2906 14.9834 29.7118 12.0737C29.133 9.16394 27.7044 6.49119 25.6066 4.39341C23.5088 2.29562 20.8361 0.867006 17.9264 0.288228C15.0166 -0.290551 12.0006 0.00649926 9.25975 1.14181C6.51886 2.27713 4.17618 4.19972 2.52796 6.66645C0.879735 9.13319 0 12.0333 0 15C0 18.9783 1.58035 22.7936 4.3934 25.6066C7.20644 28.4197 11.0218 30 15 30ZM16.9335 6.45001L19.0665 8.55001L12.6165 15.066L19.05 21.4335L16.95 23.5665L8.379 15.0945L16.9335 6.45001Z" fill="#A4ACA4"/>
</g>
<defs>
<clipPath id="clip0_4549_52">
<rect width="30" height="30" fill="white"/>
</clipPath>
</defs>
</svg>
