<svg width="30" height="30" viewBox="0 0 30 30" fill="none" xmlns="http://www.w3.org/2000/svg">
<g clip-path="url(#clip0_4549_52)">
<path d="M15 -5.72205e-06C12.0333 -5.72205e-06 9.13318 0.87973 6.66645 2.52795C4.19971 4.17617 2.27712 6.51885 1.14181 9.25974C0.00649112 12.0006 -0.290559 15.0166 0.288219 17.9263C0.866998 20.8361 2.29561 23.5088 4.3934 25.6066C6.49119 27.7044 9.16393 29.133 12.0736 29.7118C14.9834 30.2906 17.9994 29.9935 20.7403 28.8582C23.4811 27.7229 25.8238 25.8003 27.472 23.3335C29.1203 20.8668 30 17.9667 30 15C30 11.0217 28.4196 7.20644 25.6066 4.39339C22.7936 1.58035 18.9782 -5.72205e-06 15 -5.72205e-06ZM13.0665 23.55L10.9335 21.45L17.3835 14.934L10.95 8.56649L13.05 6.43349L21.621 14.9055L13.0665 23.55Z" fill="#A4ACA4"/>
</g>
<defs>
<clipPath id="clip0_4549_52">
<rect width="30" height="30" fill="white" transform="matrix(-1 0 0 -1 30 30)"/>
</clipPath>
</defs>
</svg>
